ModelForces
version=1
nRows=4
nColumns=157
inDegrees=no

This file contains the forces exerted on a model during a simulation.

A force is a generalized force, meaning that it can be either a force (N) or a torque (Nm).

Units are S.I. units (second, meters, Newtons, ...)
Angles are in degrees.

endheader
time	glut_med1_r	glut_med2_r	glut_med3_r	glut_min1_r	glut_min2_r	glut_min3_r	semimem_r	semiten_r	bifemlh_r	bifemsh_r	sar_r	add_long_r	add_brev_r	add_mag1_r	add_mag2_r	add_mag3_r	tfl_r	pect_r	grac_r	glut_max1_r	glut_max2_r	glut_max3_r	iliacus_r	psoas_r	quad_fem_r	gem_r	peri_r	rect_fem_r	vas_med_r	vas_int_r	vas_lat_r	med_gas_r	lat_gas_r	soleus_r	tib_post_r	flex_dig_r	flex_hal_r	tib_ant_r	per_brev_r	per_long_r	per_tert_r	ext_dig_r	ext_hal_r	glut_med1_l	glut_med2_l	glut_med3_l	glut_min1_l	glut_min2_l	glut_min3_l	semimem_l	semiten_l	bifemlh_l	bifemsh_l	sar_l	add_long_l	add_brev_l	add_mag1_l	add_mag2_l	add_mag3_l	tfl_l	pect_l	grac_l	glut_max1_l	glut_max2_l	glut_max3_l	iliacus_l	psoas_l	quad_fem_l	gem_l	peri_l	rect_fem_l	vas_med_l	vas_int_l	vas_lat_l	med_gas_l	lat_gas_l	soleus_l	tib_post_l	flex_dig_l	flex_hal_l	tib_ant_l	per_brev_l	per_long_l	per_tert_l	ext_dig_l	ext_hal_l	ercspn_r	ercspn_l	intobl_r	intobl_l	extobl_r	extobl_l	femur_lat_meniscii_r.femur_lat_r.force.X	femur_lat_meniscii_r.femur_lat_r.force.Y	femur_lat_meniscii_r.femur_lat_r.force.Z	femur_lat_meniscii_r.femur_lat_r.torque.X	femur_lat_meniscii_r.femur_lat_r.torque.Y	femur_lat_meniscii_r.femur_lat_r.torque.Z	femur_lat_meniscii_r.meniscus_lat_r.force.X	femur_lat_meniscii_r.meniscus_lat_r.force.Y	femur_lat_meniscii_r.meniscus_lat_r.force.Z	femur_lat_meniscii_r.meniscus_lat_r.torque.X	femur_lat_meniscii_r.meniscus_lat_r.torque.Y	femur_lat_meniscii_r.meniscus_lat_r.torque.Z	femur_med_meniscii_r.femur_med_r.force.X	femur_med_meniscii_r.femur_med_r.force.Y	femur_med_meniscii_r.femur_med_r.force.Z	femur_med_meniscii_r.femur_med_r.torque.X	femur_med_meniscii_r.femur_med_r.torque.Y	femur_med_meniscii_r.femur_med_r.torque.Z	femur_med_meniscii_r.meniscus_med_r.force.X	femur_med_meniscii_r.meniscus_med_r.force.Y	femur_med_meniscii_r.meniscus_med_r.force.Z	femur_med_meniscii_r.meniscus_med_r.torque.X	femur_med_meniscii_r.meniscus_med_r.torque.Y	femur_med_meniscii_r.meniscus_med_r.torque.Z	femur_med_tibia_r.tibia_upper_r.force.X	femur_med_tibia_r.tibia_upper_r.force.Y	femur_med_tibia_r.tibia_upper_r.force.Z	femur_med_tibia_r.tibia_upper_r.torque.X	femur_med_tibia_r.tibia_upper_r.torque.Y	femur_med_tibia_r.tibia_upper_r.torque.Z	femur_med_tibia_r.femur_med_r.force.X	femur_med_tibia_r.femur_med_r.force.Y	femur_med_tibia_r.femur_med_r.force.Z	femur_med_tibia_r.femur_med_r.torque.X	femur_med_tibia_r.femur_med_r.torque.Y	femur_med_tibia_r.femur_med_r.torque.Z	femur_lat_tibia_r.tibia_upper_r.force.X	femur_lat_tibia_r.tibia_upper_r.force.Y	femur_lat_tibia_r.tibia_upper_r.force.Z	femur_lat_tibia_r.tibia_upper_r.torque.X	femur_lat_tibia_r.tibia_upper_r.torque.Y	femur_lat_tibia_r.tibia_upper_r.torque.Z	femur_lat_tibia_r.femur_lat_r.force.X	femur_lat_tibia_r.femur_lat_r.force.Y	femur_lat_tibia_r.femur_lat_r.force.Z	femur_lat_tibia_r.femur_lat_r.torque.X	femur_lat_tibia_r.femur_lat_r.torque.Y	femur_lat_tibia_r.femur_lat_r.torque.Z	aACL_R	pACL_R	aPCL_R	pPCL_R	aMCL_R	mMCL_R	pMCL_R	aLCL_R	mLCL_R	pLCL_R	ground_prescribedForce_fx	ground_prescribedForce_fy	ground_prescribedForce_fz	ground_prescribedForce_px	ground_prescribedForce_py	ground_prescribedForce_pz
      0.70500933	      7.54912226	      5.66656049	      6.06559089	      2.65929778	      3.17933797	      3.19323634	      6.55773234	      4.00460447	      7.04770558	      7.05158886	      0.00000000	      5.61409017	      4.14161999	      2.91933661	      2.45407793	      3.98808752	      4.41074548	      2.23902059	      1.52914786	      3.65659453	      5.55679697	      4.14801961	     22.64906790	     12.96850240	      3.62717886	      2.85455331	      4.09108885	     11.19517207	      7.89639617	      8.34999479	     10.90006910	      3.09174160	      2.19919455	      9.65571483	     13.93508159	      2.48769653	      3.41446884	     15.95868606	      3.82801475	      8.02305584	     11.21321673	     10.44859476	      1.83810127	      7.54912226	      5.66656049	      6.06559089	      2.65929778	      3.17933797	      3.19323634	      8.74696029	      4.08386221	      7.68432258	      7.21702538	      1.51994915	      5.61409017	      4.14161999	      2.91933661	      2.45407793	      3.98808752	      4.09741102	      2.23902059	      1.55891714	      3.65659453	      5.55679697	      4.14801961	     22.64906790	     12.96850240	      3.62717886	      2.85455331	      4.09108885	     10.66916652	      6.59364396	      7.56345830	      8.13275513	     13.95843615	      6.48122832	     31.09494523	     42.36256346	      2.61420807	      2.85465791	      8.45329994	      4.33495142	     12.44903736	      2.00614039	      5.34796916	      1.69814666	     25.01000246	     25.01000246	      9.00148830	      9.00148830	     26.80594596	     26.80594596	     49.58834743	     73.30333709	     18.79055056	     -9.56498566	      1.20354408	     20.55385936	    -49.58834743	    -73.30333709	    -18.79055056	      2.52932407	     -1.41533307	     -1.16051214	     36.69000845	     46.90598427	     15.63506201	     -5.29356474	     -0.95622605	     15.28952054	    -36.69000845	    -46.90598427	    -15.63506201	     -0.59553716	      0.79133828	     -0.97519156	      0.00000000	      0.00000000	      0.00000000	      0.00000000	      0.00000000	      0.00000000	      0.00000000	      0.00000000	      0.00000000	      0.00000000	      0.00000000	      0.00000000	      0.00000000	      0.00000000	      0.00000000	      0.00000000	      0.00000000	      0.00000000	      0.00000000	      0.00000000	      0.00000000	      0.00000000	      0.00000000	      0.00000000	     39.13894210	     38.38387377	      0.00000000	      0.00000000	      0.00000000	      0.00000000	      0.00000000	      5.12980362	      0.00000000	     -0.03301037	    106.25000000	    -28.47000000	      0.00000000	      0.03000000	     -0.03000000	      0.00000000
      0.70726219	      7.54901930	      5.66648953	      6.06551399	      2.65926589	      3.17930348	      3.19319288	      6.54583857	      4.00057755	      7.04146127	      7.03298359	      0.00000000	      5.61401905	      4.14157078	      2.91930033	      2.45404670	      3.98803129	      4.41289755	      2.23899358	      1.52445557	      3.65654879	      5.55672724	      4.14796660	     22.64893927	     12.96835779	      3.62713442	      2.85453253	      4.09100524	     11.18194186	      7.87688011	      8.33248759	     10.87982113	      3.08285750	      2.20021083	      9.64740237	     13.95952622	      2.48609613	      3.38795706	     15.97327141	      3.82800932	      8.01928214	     11.21979502	     10.43396234	      1.85849454	      7.54901930	      5.66648953	      6.06551399	      2.65926589	      3.17930348	      3.19319288	      8.74681009	      4.08380704	      7.68419771	      7.21693691	      1.51993101	      5.61401905	      4.14157078	      2.91930033	      2.45404670	      3.98803129	      4.09737626	      2.23899358	      1.55889821	      3.65654879	      5.55672724	      4.14796660	     22.64893927	     12.96835779	      3.62713442	      2.85453253	      4.09100524	     10.66899660	      6.59355952	      7.56335957	      8.13264951	     13.95804307	      6.48104545	     31.09431178	     42.36231649	      2.61249138	      2.85382560	      8.45317213	      4.33487464	     12.44884777	      2.00611796	      5.34875925	      1.69836649	     25.00970189	     25.00970189	      9.00137049	      9.00137049	     26.80584013	     26.80584013	     48.92494444	     72.32802702	     18.52297433	     -9.43059168	      1.18761243	     20.27875902	    -48.92494444	    -72.32802702	    -18.52297433	      2.49548676	     -1.39656993	     -1.14505512	     36.56007995	     46.69196740	     15.55370547	     -5.26637978	     -0.95247680	     15.23632336	    -36.56007995	    -46.69196740	    -15.55370547	     -0.59186825	      0.78824020	     -0.97306332	      0.00000000	      0.00000000	      0.00000000	      0.00000000	      0.00000000	      0.00000000	      0.00000000	      0.00000000	      0.00000000	      0.00000000	      0.00000000	      0.00000000	      0.00000000	      0.00000000	      0.00000000	      0.00000000	      0.00000000	      0.00000000	      0.00000000	      0.00000000	      0.00000000	      0.00000000	      0.00000000	      0.00000000	     39.32076924	     38.59522133	      0.00000000	      0.00000000	      0.00000000	      0.00000000	      0.00000000	      5.57358808	      0.00000000	      0.40884306	    106.25000000	    -28.47000000	      0.00000000	      0.03000000	     -0.03000000	      0.00000000
      0.70777562	      7.54899625	      5.66647365	      6.06549678	      2.65925875	      3.17929576	      3.19318315	      6.54439469	      4.00033049	      7.04088567	      7.03216644	      0.67230834	      5.61400313	      4.14155976	      2.91929220	      2.45403971	      3.98801870	      4.41359827	      2.23898753	      1.52436046	      3.65653854	      5.55671163	      4.14795473	     22.64891047	     12.96832542	      3.62712447	      2.85452787	      4.09098653	     11.18040139	      7.87621328	      8.33207718	     10.87932866	      3.08198568	      2.20082148	      9.64589973	     13.96431199	      2.48611426	      3.38188059	     15.97605744	      3.82846266	      8.01895897	     11.22160331	     10.42926599	      1.86291772	      7.54899625	      5.66647365	      6.06549678	      2.65925875	      3.17929576	      3.19318315	      8.74677646	      4.08379469	      7.68416975	      7.21691711	      1.51992695	      5.61400313	      4.14155976	      2.91929220	      2.45403971	      3.98801870	      4.09736847	      2.23898753	      1.55889397	      3.65653854	      5.55671163	      4.14795473	     22.64891047	     12.96832542	      3.62712447	      2.85452787	      4.09098653	     10.66895856	      6.59354062	      7.56333747	      8.13262587	     13.95795505	      6.48100450	     31.09416997	     42.36226120	      2.61209933	      2.85363587	      8.45314352	      4.33485746	     12.44880532	      2.00611293	      5.34894003	      1.69841675	     25.00963460	     25.00963460	      9.00134411	      9.00134411	     26.80581644	     26.80581644	     48.84939635	     72.22160401	     18.48854922	     -9.41375697	      1.18580759	     20.24739489	    -48.84939635	    -72.22160401	    -18.48854922	      2.49165924	     -1.39443623	     -1.14325718	     36.56376655	     46.70754345	     15.54317206	     -5.26171833	     -0.95250456	     15.23796959	    -36.56376655	    -46.70754345	    -15.54317206	     -0.59241237	      0.78829329	     -0.97325113	      0.00000000	      0.00000000	      0.00000000	      0.00000000	      0.00000000	      0.00000000	      0.00000000	      0.00000000	      0.00000000	      0.00000000	      0.00000000	      0.00000000	      0.00000000	      0.00000000	      0.00000000	      0.00000000	      0.00000000	      0.00000000	      0.00000000	      0.00000000	      0.00000000	      0.00000000	      0.00000000	      0.00000000	     39.33718723	     38.61804944	      0.00000000	      0.00000000	      0.00000000	      0.00000000	      0.00000000	      5.59278570	      0.00000000	      0.42768880	    106.25000000	    -28.47000000	      0.00000000	      0.03000000	     -0.03000000	      0.00000000
      0.70896417	      7.54894346	      5.66643728	      6.06545736	      2.65924241	      3.17927808	      3.19316086	      6.54095871	      3.99964683	      7.03936018	      7.02951439	      1.35978402	      5.61396668	      4.14153453	      2.91927360	      2.45402370	      3.98798987	      4.41508697	      2.23897368	      1.52405254	      3.65651509	      5.55667588	      4.14792756	     22.64884453	     12.96825129	      3.62710169	      2.85451722	      4.09094367	     11.17666290	      7.87410744	      8.33043137	     10.87760862	      3.07931175	      2.20177382	      9.64134707	     13.97438669	      2.48672624	      3.36777828	     15.98266452	      3.82982706	      8.01862727	     11.22608370	     10.41659126	      1.87288336	      7.54894346	      5.66643728	      6.06545736	      2.65924241	      3.17927808	      3.19316086	      8.74669947	      4.08376641	      7.68410574	      7.21687176	      1.51991765	      5.61396668	      4.14153453	      2.91927360	      2.45402370	      3.98798987	      4.09735065	      2.23897368	      1.55888427	      3.65651509	      5.55667588	      4.14792756	     22.64884453	     12.96825129	      3.62710169	      2.85451722	      4.09094367	     10.66887146	      6.59349734	      7.56328686	      8.13257173	     13.95775348	      6.48091072	     31.09384525	     42.36213460	      2.61119057	      2.85319656	      8.45307800	      4.33481810	     12.44870812	      2.00610143	      5.34935954	      1.69853334	     25.00948053	     25.00948053	      9.00128372	      9.00128372	     26.80576219	     26.80576219	     48.79946103	     72.17318838	     18.48875293	     -9.41286467	      1.18481439	     20.22651805	    -48.79946103	    -72.17318838	    -18.48875293	      2.49068364	     -1.39337122	     -1.14189313	     36.68968880	     46.90040631	     15.57146358	     -5.26880880	     -0.95562366	     15.29071302	    -36.68968880	    -46.90040631	    -15.57146358	     -0.59563190	      0.79092903	     -0.97678883	      0.00000000	      0.00000000	      0.00000000	      0.00000000	      0.00000000	      0.00000000	      0.00000000	      0.00000000	      0.00000000	      0.00000000	      0.00000000	      0.00000000	      0.00000000	      0.00000000	      0.00000000	      0.00000000	      0.00000000	      0.00000000	      0.00000000	      0.00000000	      0.00000000	      0.00000000	      0.00000000	      0.00000000	     39.30514751	     38.59735960	      0.00000000	      0.00000000	      0.00000000	      0.00000000	      0.00000000	      5.51825508	      0.00000000	      0.35201870	    106.25000000	    -28.47000000	      0.00000000	      0.03000000	     -0.03000000	      0.00000000
